<svg width="399" height="383" viewBox="0 0 399 383" fill="none" xmlns="http://www.w3.org/2000/svg">
<path fill-rule="evenodd" clip-rule="evenodd" d="M309.997 239.577L357.677 224.61C358.83 228.888 359.407 232.421 359.407 235.209C359.407 237.997 358.037 244.414 355.297 254.46L349.024 363.478C335.806 360.017 325.423 358.286 317.877 358.286H297.811L297.288 363.384C284.07 359.923 273.687 358.193 266.14 358.193C258.594 358.193 246.048 358.193 228.503 358.193L277.821 246.364L310.699 232.736L309.997 239.577Z" fill="white"/>
<path d="M283.649 342.835L309.086 239.581C309.113 239.471 309.196 239.383 309.304 239.349L357.54 224.207C357.716 224.152 357.902 224.254 357.95 224.432C359.111 228.736 359.692 232.296 359.692 235.116C359.692 237.941 358.322 244.361 355.579 254.42L349.64 357.647L349.417 373.334H190.001L245.591 342.835H283.649ZM349.842 342.835L354.934 254.348L354.944 254.282C357.676 244.266 359.043 237.863 359.043 235.116C359.043 232.431 358.499 229.034 357.411 224.928L309.672 239.913L284.317 342.835H349.842Z" fill="black"/>
<path fill-rule="evenodd" clip-rule="evenodd" d="M271.434 166.086L273.102 163.396L321.77 154.162C345.564 150.999 357.46 145.092 357.46 136.44C357.46 127.788 349.529 123.606 333.667 123.894L333.018 92.3136C339.651 91.2806 348.736 91.8038 360.272 93.8831C377.577 97.0021 400.505 109.295 397.909 140.485C396.455 157.963 385.898 174.544 362.436 185.243C359.469 186.596 353.989 187.672 345.996 188.472L342.041 188.487L366.978 223.312C343.538 234.447 325.584 241.802 313.118 245.375C300.652 248.949 286.664 250.752 271.155 250.783L274.813 202.992L251.039 210.983L266.396 232.83L252.506 253.595C222.784 238.552 208.868 222.834 210.76 206.441C212.651 190.047 232.839 176.348 271.325 165.343L271.434 166.086Z" fill="white"/>
<path d="M271.242 165.154C271.415 165.105 271.594 165.205 271.644 165.377C271.693 165.549 271.593 165.729 271.421 165.778C233.051 176.75 212.96 190.384 211.089 206.601C209.217 222.822 223.045 238.441 252.66 253.429C252.82 253.51 252.884 253.705 252.803 253.865C252.722 254.025 252.527 254.089 252.367 254.008C222.536 238.91 208.533 223.093 210.444 206.527C212.356 189.957 232.641 176.193 271.242 165.154ZM248.019 204.726L275.697 196.275L275.048 204.278L274.701 204.398C274.667 204.482 274.599 204.552 274.507 204.584L253.015 212.139L266.627 232.557C266.726 232.706 266.686 232.907 266.537 233.007C266.388 233.106 266.186 233.066 266.087 232.917L252.402 212.39C252.317 212.367 252.238 212.319 252.178 212.245C250.433 210.109 248.69 207.567 246.949 204.621C246.828 204.415 246.896 204.15 247.102 204.028C247.308 203.907 247.573 203.975 247.694 204.181C247.803 204.364 247.911 204.546 248.019 204.726Z" fill="black"/>
<path fill-rule="evenodd" clip-rule="evenodd" d="M80.956 370.57L97.2647 370.466L97.5906 305.845L66.965 305.497C48.2807 305.285 32.5465 319.417 30.7585 338.016L28.6511 359.939C28.1252 365.409 32.1333 370.269 37.6033 370.795C37.9409 370.828 38.2799 370.843 38.619 370.841L71.6141 370.63L75.9923 343.146C76.1051 342.438 76.7703 341.955 77.4782 342.068C78.0662 342.162 78.515 342.644 78.5669 343.237L80.956 370.57Z" fill="white"/>
<path fill-rule="evenodd" clip-rule="evenodd" d="M72.1052 180.917L79.2433 168.372L112.298 170.657L106.891 200.724L97.3937 306.013C81.3473 305.985 71.8952 306.002 69.0375 306.064C66.1797 306.126 64.2462 306.085 63.2367 305.941L44.6804 296.002C29.7267 287.993 24.0973 269.377 32.1067 254.424C32.2259 254.201 32.3478 253.98 32.4724 253.761L59.9629 205.343" fill="white"/>
<path fill-rule="evenodd" clip-rule="evenodd" d="M72.1052 180.917L79.2433 168.372L112.298 170.657L106.891 200.724L97.3937 306.013C81.3473 305.985 71.8952 306.002 69.0375 306.064C66.1797 306.126 64.2462 306.085 63.2367 305.941L44.6804 296.002C29.7267 287.993 24.0973 269.377 32.1067 254.424C32.2259 254.201 32.3478 253.98 32.4724 253.761L59.9629 205.343" fill="white"/>
<path fill-rule="evenodd" clip-rule="evenodd" d="M110.441 170.272L95.3761 257.709C91.9875 277.376 102.68 296.766 121.121 304.395C129.276 307.768 138.054 314.078 155.646 301.98C162.095 297.545 167.693 292.213 172.441 285.983C179.275 277.016 180.647 265.025 176.014 254.746L136.549 167.173L110.441 170.272Z" fill="white"/>
<path d="M111.749 170.739L106.405 200.449L96.9308 305.471C81.061 305.444 71.7078 305.461 68.864 305.523C66.0765 305.584 64.1745 305.545 63.1723 305.411L44.6671 295.499C29.8714 287.574 24.3015 269.156 32.2263 254.36C32.3442 254.14 32.4648 253.921 32.5881 253.704L60.0786 205.286C60.1671 205.13 60.1125 204.932 59.9567 204.844C59.8009 204.755 59.6028 204.81 59.5143 204.966L32.0238 253.384C31.8979 253.605 31.7747 253.829 31.6542 254.054C23.5602 269.165 29.2491 287.977 44.3607 296.071L62.9171 306.01C62.9505 306.028 62.9869 306.04 63.0244 306.045C64.0569 306.193 66.0031 306.234 68.8781 306.172C71.732 306.109 81.184 306.092 97.2267 306.12C97.3948 306.121 97.5353 305.992 97.5504 305.825L107.047 200.536L112.451 170.498C112.485 170.308 112.347 170.13 112.154 170.117L79.0992 167.83C78.9748 167.822 78.8565 167.886 78.7948 167.994L71.6568 180.54C71.5682 180.696 71.6226 180.894 71.7783 180.982C71.9341 181.071 72.1322 181.017 72.2208 180.861L79.2579 168.492L111.749 170.739Z" fill="black"/>
<path d="M31.183 337.089C31.1442 337.404 31.1094 337.721 31.0788 338.04L28.9714 359.962C28.4627 365.254 32.3401 369.956 37.6317 370.465C37.9583 370.496 38.2862 370.511 38.6143 370.509L71.3342 370.3L75.6692 343.087C75.8102 342.202 76.6417 341.599 77.5265 341.74C78.2616 341.857 78.8226 342.46 78.8874 343.201L81.2505 370.236L96.9392 370.136L97.1059 337.089H31.183V337.089ZM80.9554 370.887C80.7863 370.888 80.6448 370.759 80.6301 370.591L78.241 343.258C78.2021 342.813 77.8655 342.451 77.4245 342.381C76.8936 342.297 76.3946 342.658 76.3101 343.189L71.9318 370.673C71.9068 370.83 71.7722 370.946 71.6135 370.947L38.6184 371.158C38.2682 371.16 37.9182 371.144 37.5696 371.111C31.9212 370.568 27.7825 365.549 28.3255 359.9L30.4329 337.978C32.237 319.21 48.1132 304.951 66.966 305.165L97.5916 305.513C97.77 305.515 97.9133 305.661 97.9124 305.839L97.5865 370.46C97.5856 370.638 97.4418 370.782 97.2641 370.783L80.9554 370.887Z" fill="black"/>
<path fill-rule="evenodd" clip-rule="evenodd" d="M118.745 368.582L117.419 323.429C117.041 310.57 127.159 299.839 140.018 299.462C140.254 299.455 140.491 299.451 140.728 299.452C153.849 299.466 164.474 310.115 164.46 323.236C164.46 323.321 164.459 323.406 164.458 323.49L163.925 368.726L156.282 377.581C152.087 382.443 145.033 383.648 139.462 380.455L118.745 368.582Z" fill="white"/>
<path fill-rule="evenodd" clip-rule="evenodd" d="M110.441 170.272L95.3761 257.709C91.9875 277.376 102.68 296.766 121.121 304.395C129.276 307.768 138.054 314.078 155.646 301.98C162.095 297.545 167.693 292.213 172.441 285.983C179.275 277.016 180.647 265.025 176.014 254.746L136.549 167.173L110.441 170.272Z" fill="white"/>
<path d="M110.148 169.705C110.005 169.722 109.89 169.83 109.866 169.972L94.8008 257.409C91.3864 277.226 102.16 296.763 120.742 304.45C121.265 304.666 121.809 304.902 122.501 305.21C122.773 305.331 123.979 305.871 124.307 306.017C129.442 308.298 132.759 309.242 137.002 309.151C142.537 309.033 148.551 306.833 155.574 302.003C162.052 297.548 167.675 292.192 172.443 285.935C179.35 276.873 180.736 264.756 176.055 254.368L136.59 166.795C136.531 166.666 136.396 166.589 136.256 166.606L110.148 169.705ZM136.096 167.278L175.463 254.635C180.046 264.805 178.689 276.669 171.927 285.542C167.201 291.744 161.627 297.053 155.206 301.469C148.281 306.231 142.387 308.388 136.988 308.502C132.863 308.59 129.626 307.67 124.57 305.424C124.243 305.279 123.038 304.738 122.765 304.617C122.068 304.307 121.519 304.069 120.99 303.85C102.689 296.279 92.0774 277.037 95.4402 257.519L110.464 170.321L136.096 167.278Z" fill="black"/>
<path d="M164.062 342.931C156.767 348.09 150.336 350.612 144.77 350.5C139.127 350.386 130.351 347.482 118.44 341.789L119.222 368.387L139.78 380.169C145.217 383.285 152.1 382.109 156.194 377.365L163.759 368.6L164.062 342.931ZM118.578 368.588L117.252 323.434C116.869 310.396 127.128 299.516 140.166 299.133C140.405 299.126 140.645 299.123 140.885 299.123C154.186 299.138 164.956 309.932 164.942 323.233C164.942 323.318 164.941 323.404 164.94 323.49L164.406 368.726C164.405 368.803 164.378 368.876 164.328 368.934L156.685 377.789C152.388 382.769 145.164 384.003 139.458 380.732L118.741 368.86C118.643 368.804 118.582 368.701 118.578 368.588ZM119.227 368.569L119.222 368.387L119.064 368.297L119.227 368.569Z" fill="black"/>
<path fill-rule="evenodd" clip-rule="evenodd" d="M87.2963 130.518C74.0296 129.653 65.2332 137.584 60.9071 154.312C58.5038 163.604 60.9071 166.108 60.9071 170.534C60.9071 176.375 64.3693 191.997 46.8474 193.463C34.5677 194.49 17.9714 183.764 15.6995 166.208C13.3202 147.822 19.0517 139.098 24.1354 127.057C37.3042 95.8681 85.7165 84.9611 100.923 95.4768C111.061 102.487 128.654 109.842 153.702 117.54L151.539 170.534L142.454 194.328C127.384 192.599 115.631 190.436 107.196 187.839C98.7613 185.241 86.8645 180.122 71.5061 172.481L87.2963 130.518Z" fill="white"/>
<path d="M66.7555 174.733C66.6809 174.703 66.6062 174.674 66.5313 174.644L66.5396 174.628C66.4185 174.531 66.3799 174.356 66.461 174.214C67.6715 172.093 68.7879 170.104 69.8101 168.246L75.3997 157.34C76.5274 154.491 77.5356 151.956 78.4241 149.735C80.1893 144.752 82.0857 140.233 84.0112 136.226C84.7991 134.586 85.5359 133.151 86.2012 131.929C86.4251 131.518 86.6254 131.16 86.8001 130.855C86.8213 130.815 86.8426 130.775 86.8639 130.734C86.863 130.739 86.862 130.744 86.8611 130.749C86.9483 130.598 87.0099 130.494 87.0443 130.437C87.1369 130.284 87.3364 130.234 87.4898 130.327C87.6432 130.42 87.6924 130.619 87.5998 130.773C87.5628 130.834 87.49 130.957 87.3842 131.141C87.207 131.449 87.0018 131.816 86.771 132.24C86.6868 132.394 86.6015 132.552 86.515 132.714C83.3371 151.422 84.5349 164.678 90.1084 172.481C95.0987 179.467 100.089 184.241 105.079 186.802C105.799 186.965 106.517 187.122 107.232 187.274C119.894 189.965 130.702 191.168 139.656 190.886C139.835 190.88 139.985 191.021 139.991 191.2C139.996 191.379 139.855 191.529 139.676 191.535C130.665 191.819 119.806 190.61 107.097 187.909C94.4319 185.218 80.9848 180.826 66.7555 174.733Z" fill="black"/>
<path fill-rule="evenodd" clip-rule="evenodd" d="M151.553 202.274C178.228 203.031 192.441 193.471 197.221 173.161C204.391 142.695 168.447 114.785 150.961 109.104L135.099 168.155L136.613 190.434C138.918 195.579 141.008 198.896 142.886 200.384C144.328 201.527 147.217 202.157 151.553 202.274Z" fill="white"/>
<path d="M151.548 201.791C177.797 202.536 192.097 193.301 196.891 172.928C200.123 159.196 194.756 144.957 183.081 131.896C173.636 121.329 160.509 112.393 150.846 109.254C150.676 109.198 150.583 109.015 150.638 108.845C150.693 108.674 150.877 108.581 151.047 108.637C160.823 111.813 174.046 120.814 183.565 131.463C195.368 144.668 200.811 159.107 197.523 173.076C192.652 193.773 178.067 203.193 151.53 202.439C151.35 202.434 151.209 202.285 151.214 202.106C151.22 201.927 151.369 201.786 151.548 201.791Z" fill="black"/>
<path d="M333.525 92.5841L334.162 123.557C349.966 123.329 357.962 127.604 357.962 136.432C357.962 145.322 345.938 151.293 321.99 154.476C321.812 154.5 321.649 154.375 321.625 154.198C321.602 154.02 321.727 153.857 321.904 153.833C345.543 150.691 357.313 144.846 357.313 136.432C357.313 128.016 349.555 123.925 333.85 124.211C333.671 124.214 333.523 124.072 333.519 123.893L332.87 92.3127C332.867 92.1503 332.984 92.0104 333.145 91.9854C339.82 90.9459 348.938 91.471 360.507 93.5562C370.569 95.3699 380.063 99.7137 386.956 106.417C395.442 114.668 399.615 126.016 398.41 140.504C397.204 154.992 389.828 167.369 378.251 176.422C368.332 184.179 355.98 188.788 346.173 188.788C345.994 188.788 345.849 188.643 345.849 188.464C345.849 188.285 345.994 188.139 346.173 188.139C355.829 188.139 368.042 183.582 377.851 175.911C389.293 166.964 396.573 154.748 397.763 140.45C398.953 126.154 394.849 114.997 386.504 106.882C379.711 100.277 370.335 95.9871 360.392 94.1948C349.05 92.1506 340.092 91.6151 333.525 92.5841ZM341.67 188.487L366.978 223.529L358.326 227.855C355.442 223.673 351.62 218.626 346.862 212.714C342.103 206.801 340.372 198.726 341.67 188.487Z" fill="black"/>
<path d="M87.2595 130.276C73.8209 129.4 64.8971 137.446 60.5351 154.312C59.146 159.684 59.177 162.382 60.0628 166.908C60.1932 167.574 60.2571 167.917 60.3208 168.31C60.4569 169.149 60.5248 169.872 60.5248 170.616C60.5248 170.881 60.5317 171.173 60.5452 171.508C60.5669 172.046 60.7143 174.459 60.7438 175.09C60.818 176.681 60.8258 178.025 60.7474 179.335C60.2568 187.531 56.3617 192.418 46.7624 193.221C40.6561 193.732 33.5207 191.29 27.6646 186.632C21.2928 181.563 17.0204 174.416 15.9634 166.248C15.103 159.6 15.2623 153.941 16.3274 148.629C17.1915 144.32 18.523 140.55 20.9045 135.132C20.7222 135.547 23.5861 129.137 24.3764 127.265C30.3953 113.01 44.4089 101.922 61.8115 96.0168C77.4129 90.7224 93.1982 90.651 100.681 95.8255C100.828 95.9274 101.031 95.8905 101.132 95.7431C101.234 95.5958 101.197 95.3937 101.05 95.2917C93.3633 89.9763 77.3792 90.0485 61.603 95.4023C44.0388 101.363 29.8781 112.567 23.7786 127.013C22.9914 128.877 20.1306 135.28 20.3104 134.871C17.9118 140.328 16.5662 144.138 15.6911 148.502C14.6119 153.884 14.4506 159.614 15.3199 166.332C16.3993 174.672 20.7611 181.969 27.2607 187.14C33.2404 191.897 40.5365 194.393 46.8165 193.868C52.199 193.417 55.9476 191.626 58.3047 188.669C60.2373 186.244 61.1686 183.158 61.3952 179.373C61.4751 178.037 61.4672 176.671 61.392 175.06C61.3622 174.421 61.2149 172.011 61.1936 171.482C61.1804 171.155 61.1737 170.871 61.1737 170.616C61.1737 169.834 61.1026 169.078 60.9613 168.206C60.8962 167.804 60.8313 167.456 60.6997 166.783C59.8311 162.346 59.8011 159.742 61.1634 154.475C65.4536 137.886 74.1225 130.07 87.2173 130.924C87.3961 130.935 87.5505 130.8 87.5622 130.621C87.5738 130.442 87.4383 130.288 87.2595 130.276Z" fill="black"/>
<path fill-rule="evenodd" clip-rule="evenodd" d="M299.517 154.084L255.386 160.871C254.678 160.979 254.192 161.642 254.301 162.351C254.387 162.913 254.831 163.354 255.394 163.437L275.354 166.38L268.521 181.425C268.225 182.077 268.513 182.847 269.166 183.143C269.654 183.365 270.228 183.264 270.611 182.889L286.854 166.984L291.033 187.028C291.179 187.73 291.866 188.18 292.568 188.034C293.079 187.927 293.477 187.525 293.577 187.012L297.375 167.536L314.966 181.993C315.52 182.448 316.338 182.368 316.793 181.815C317.09 181.453 317.17 180.959 317.001 180.523L311.218 165.559L329.961 171.263C330.647 171.472 331.372 171.085 331.581 170.4C331.717 169.954 331.603 169.469 331.283 169.13L320.23 157.429L339.183 152.357C339.875 152.172 340.286 151.46 340.101 150.768C339.955 150.225 339.477 149.837 338.915 149.807L320.679 148.85L329.641 140.112C330.154 139.612 330.165 138.79 329.664 138.277C329.254 137.856 328.613 137.764 328.1 138.051L299.517 154.084Z" fill="black"/>
<path fill-rule="evenodd" clip-rule="evenodd" d="M124.012 119.187C122.58 120.515 120.867 121.413 118.855 122.119C115.219 123.394 110.66 123.956 106.961 122.071C104.364 120.748 101.375 117.985 100.013 115.637C97.9542 112.089 98.1224 108.294 99.6782 104.393C97.5851 104.465 95.4807 104.134 93.597 103.174C90.9831 101.843 87.9732 99.0637 86.6005 96.7033C84.1721 92.5275 84.813 88.0153 87.1691 83.3912C88.779 80.2315 91.4003 77.3743 94.4157 76.0599C98.3078 74.3634 102.874 74.8853 106.952 76.9633C110.64 78.8425 113.274 82.106 114.406 85.7716C114.949 87.5307 115.145 89.3816 114.981 91.2355C116.659 92.3679 118.954 95.313 120.256 95.9766C122.3 97.0181 129.25 98.7051 131.29 100.465C131.68 100.235 132.079 100.03 132.485 99.8534C136.377 98.1569 140.943 98.6787 145.022 100.757C148.71 102.636 151.343 105.9 152.476 109.565C153.565 113.093 153.258 116.99 151.45 120.54C149.659 124.054 147.085 125.821 143.635 127.027C139.978 128.305 135.391 128.865 131.667 126.968C129.053 125.636 126.043 122.857 124.67 120.497C124.418 120.064 124.199 119.627 124.012 119.187Z" fill="black"/>
<path d="M141.608 63.4196L149.776 68.4749C153.921 71.0407 155.936 75.9653 154.723 80.5672C152.909 87.4426 151.131 92.6098 149.387 96.0687C147.641 99.5302 145.505 102.576 142.979 105.205C141.4 106.848 139.026 107.496 136.77 106.899L135.499 106.563C134.078 106.187 132.736 105.544 131.548 104.668L125.297 100.059L122.72 102.613L112.154 93.1986L122.93 68.8816C125.801 62.4021 133.491 59.5969 140.106 62.6161C140.622 62.852 141.124 63.1204 141.608 63.4196Z" fill="white"/>
<path fill-rule="evenodd" clip-rule="evenodd" d="M134.299 89.7734C135.089 86.0868 136.766 83.8273 139.329 82.9947C143.174 81.746 145.334 81.4605 147.232 81.9403C149.076 82.4065 153.719 83.2198 153.719 83.2198C153.719 83.2198 151.836 89.2394 149.732 95.04C147.628 100.841 141.801 105.513 141.801 105.513C141.801 105.513 131.406 99.4262 134.299 89.7734Z" fill="#FF83F4"/>
<path d="M149.812 95.6821C152.118 96.5733 152.931 97.8494 152.25 99.5103C151.739 100.755 150.295 101.328 149.023 100.79C148.874 100.727 148.732 100.65 148.598 100.561L147.488 99.8195C146.186 101.843 144.724 103.697 143.103 105.382C141.443 107.107 138.948 107.786 136.576 107.16L135.357 106.838C133.86 106.443 132.45 105.759 131.207 104.828L125.371 100.452L123.425 102.775C123.312 102.91 123.107 102.926 122.967 102.812L111.97 93.8359C111.855 93.7424 111.816 93.5863 111.873 93.4543L122.565 68.8861C125.461 62.2319 133.322 59.3051 140.124 62.3488C140.684 62.5995 141.227 62.8874 141.75 63.2104L149.828 68.2026C154.099 70.8419 156.175 75.9074 154.924 80.6408C153.191 87.2034 151.488 92.2158 149.812 95.6821ZM125.06 99.7986C125.169 99.6678 125.365 99.6478 125.506 99.753L131.592 104.316C132.765 105.196 134.097 105.841 135.51 106.214L136.729 106.536C138.871 107.102 141.125 106.488 142.624 104.93C145.129 102.327 147.247 99.3109 148.979 95.8815C150.712 92.4502 152.484 87.3088 154.292 80.462C155.47 76.0042 153.515 71.2338 149.493 68.7483L141.415 63.7561C140.918 63.4489 140.401 63.175 139.868 62.9365C133.398 60.0413 125.921 62.8254 123.166 69.1549L112.571 93.4999L123.122 102.111L125.06 99.7986Z" fill="black"/>
<path fill-rule="evenodd" clip-rule="evenodd" d="M122.523 64.5854C122.932 63.1443 122.301 62.9891 120.632 64.1197C119.175 65.1063 116.361 68.9715 112.19 75.7153C110.81 77.9465 110.114 80.5335 110.19 83.156C110.231 84.5713 110.358 85.6835 110.572 86.4924C110.969 87.9941 111.907 89.364 113.384 90.6022L123.118 81.7337L126.655 79.6134C124.291 83.4181 123.227 85.4884 123.464 85.8242C124.073 86.6871 125.599 87.4284 128.041 88.0481C129.895 82.9044 131.419 79.6371 132.611 78.2462C133.804 76.8553 131.699 73.0098 126.297 66.7095L122.523 64.5854Z" fill="white"/>
<path d="M122.519 63.1887C122.08 63.0806 121.446 63.3494 120.535 63.9667C119.023 64.9907 116.2 68.8681 111.999 75.6603C110.585 77.9455 109.873 80.5951 109.95 83.281C109.992 84.719 110.122 85.8542 110.343 86.691C110.759 88.2616 111.734 89.6875 113.261 90.9665C113.385 91.0708 113.567 91.0671 113.687 90.9577L123.397 82.111L125.766 80.691C123.725 84.0376 122.95 85.6542 123.284 86.1269C123.951 87.0713 125.534 87.8409 128.046 88.4782C128.208 88.5193 128.374 88.4309 128.431 88.2738C130.272 83.167 131.784 79.9239 132.943 78.573C134.306 76.9826 132.166 73.0727 126.628 66.614C126.603 66.5852 126.573 66.561 126.54 66.5424L122.984 64.5401C123.149 63.8013 123.032 63.3151 122.519 63.1887ZM132.45 78.1506C131.245 79.5558 129.743 82.755 127.921 87.7754C125.73 87.1931 124.362 86.5115 123.825 85.7675L123.827 85.7717C123.84 85.79 123.841 85.7888 123.843 85.7695C123.851 85.7 123.877 85.5982 123.922 85.4681C124.019 85.1848 124.198 84.7884 124.457 84.2835C124.984 83.2578 125.837 81.7958 127.015 79.9002C127.195 79.6111 126.865 79.2757 126.573 79.4507L123.036 81.5711L122.984 81.6095L113.463 90.2847C112.158 89.1373 111.33 87.8847 110.971 86.5251C110.764 85.7439 110.639 84.6548 110.599 83.2623C110.525 80.7033 111.204 78.1788 112.551 76.0016C116.692 69.3062 119.497 65.4532 120.899 64.504C121.656 63.9907 122.173 63.7717 122.364 63.8188C122.383 63.8234 122.388 63.8299 122.398 63.906C122.419 64.0525 122.387 64.2917 122.296 64.6126C122.255 64.7568 122.318 64.9102 122.449 64.9838L126.172 67.0798C131.411 73.1959 133.469 76.9621 132.45 78.1506Z" fill="black"/>
<path fill-rule="evenodd" clip-rule="evenodd" d="M142.835 100.415L145.434 101.837L143.838 103.871C143.698 104.05 143.454 104.108 143.249 104.011C143.021 103.903 142.837 103.723 142.723 103.499L141.714 101.5C141.511 101.097 141.673 100.606 142.075 100.403C142.315 100.282 142.599 100.286 142.835 100.415ZM149.131 90.4002C147.416 89.4485 146.155 89.2401 145.349 89.7749C144.14 90.5771 142.826 90.5206 142.694 89.4472C142.562 88.3737 143.933 87.1157 146.427 87.8992C148.089 88.4215 148.99 89.2552 149.131 90.4002Z" fill="white"/>
<path d="M145.69 101.353C145.866 101.449 145.913 101.68 145.79 101.837L144.194 103.872C143.96 104.169 143.552 104.266 143.21 104.104C142.918 103.966 142.68 103.734 142.534 103.445L141.525 101.446C141.241 100.884 141.467 100.197 142.029 99.9134C142.364 99.7441 142.761 99.7507 143.091 99.9309L145.69 101.353ZM142.779 100.5C142.637 100.422 142.466 100.42 142.322 100.493C142.079 100.615 141.982 100.911 142.104 101.154L143.113 103.153C143.194 103.312 143.326 103.441 143.488 103.517C143.556 103.55 143.637 103.53 143.683 103.471L145.043 101.738L142.779 100.5ZM149.553 90.1608C149.585 90.424 149.305 90.6127 149.074 90.484C147.454 89.585 146.307 89.3954 145.629 89.8453C144.205 90.7899 142.638 90.6381 142.472 89.2868C142.278 87.705 144.223 86.6354 146.624 87.3897C148.396 87.9465 149.395 88.8701 149.553 90.1608ZM146.429 88.0088C144.427 87.3796 142.989 88.1703 143.116 89.2077C143.205 89.9317 144.182 90.0263 145.27 89.3046C146.082 88.7659 147.227 88.8672 148.701 89.5627C148.356 88.8973 147.608 88.3793 146.429 88.0088Z" fill="black"/>
<path fill-rule="evenodd" clip-rule="evenodd" d="M124.518 80.5965C124.632 76.9864 122.974 75.1757 119.544 75.1644C114.399 75.1476 110.438 86.6237 120.193 89.5757" fill="white"/>
<path d="M121.284 79.0451C121.26 79.212 121.11 79.3343 120.939 79.322C118.914 79.1757 117.619 79.8683 116.976 81.4158C116.907 81.5812 116.718 81.6596 116.552 81.5909C116.387 81.5221 116.308 81.3322 116.377 81.1668C117.134 79.3454 118.697 78.5094 120.986 78.6747C121.004 78.676 121.022 78.6788 121.039 78.6829C120.082 77.4538 118.528 77.4539 115.482 79.1335C115.378 79.1904 115.258 79.1852 115.163 79.1303C114.862 79.7798 114.637 80.4903 114.511 81.2354C113.905 84.8173 115.679 87.9708 119.868 89.4257C120.038 89.4845 120.127 89.6694 120.068 89.8386C120.01 90.0079 119.825 90.0975 119.655 90.0387C115.161 88.4778 113.213 85.0157 113.871 81.1271C114.456 77.6714 117.019 74.8647 119.71 74.9824C123.323 75.1403 125.042 77.1773 124.77 80.9584C124.765 81.0262 124.739 81.0875 124.7 81.1369C124.723 81.2321 124.704 81.3367 124.637 81.4188C123.98 82.2321 123.169 82.2197 122.405 81.4109C122.285 81.2833 122.184 81.1174 122.082 80.8982C121.987 80.6926 121.662 79.8311 121.591 79.6635C121.496 79.4383 121.394 79.2318 121.284 79.0451ZM115.581 78.3437C119.341 76.3798 121.17 77.0015 122.189 79.4108C122.269 79.5991 122.588 80.4461 122.671 80.6253C122.745 80.7866 122.813 80.8978 122.877 80.9655C123.381 81.4989 123.732 81.5051 124.131 81.013C124.123 80.9808 124.12 80.9467 124.122 80.9117C124.369 77.4877 122.922 75.7723 119.682 75.6307C118.141 75.5633 116.598 76.6657 115.581 78.3437Z" fill="black"/>
<path fill-rule="evenodd" clip-rule="evenodd" d="M119.07 66.0135C124.845 72.0981 130.431 76.6893 135.828 79.7872C141.225 82.8852 147.339 83.8496 154.169 82.6805C163.296 73.1332 168.78 67.9251 170.621 67.0564C173.383 65.7532 177.475 67.2011 178.267 70.6215C178.795 72.9018 175.895 80.4853 169.567 93.3721C180.59 86.4526 186.464 82.2171 187.187 80.6656C188.272 78.3384 202.004 65.7805 183.061 52.1522C170.431 43.0667 158.828 45.4294 148.251 59.2404C149.395 46.5517 146.409 38.1125 139.293 33.9227C128.62 27.6379 120.572 31.0774 114.729 43.6086C110.833 51.9628 108.627 57.0362 108.109 58.829C116.966 50.7541 122.309 47.1433 124.139 47.9965C125.968 48.8497 124.279 54.8554 119.07 66.0135Z" fill="white"/>
<path d="M172.396 91.2586C181.413 85.5042 186.299 81.8975 186.916 80.5745C187.022 80.3463 187.213 80.06 187.57 79.5752C187.532 79.6268 188.372 78.5002 188.648 78.1172C190.741 75.2178 192.06 72.5992 192.537 69.6267C193.472 63.8042 190.679 58.0626 182.894 52.4616C170.448 43.508 159.069 45.7935 148.618 59.3714C148.617 59.3853 148.616 59.3992 148.613 59.4132L147.532 65.2534C147.499 65.4296 147.33 65.546 147.154 65.5134C146.977 65.4807 146.861 65.3114 146.894 65.1353L147.96 59.3739C147.951 59.3382 147.947 59.2991 147.951 59.2574C149.085 46.6812 146.142 38.3643 139.152 34.2483C128.756 28.127 120.871 31.3005 115.046 43.7918C112.249 49.7902 110.322 54.0978 109.272 56.7007C109.439 56.7837 109.6 56.8755 109.754 56.9752C117.658 49.935 122.416 46.8706 124.299 47.7485C126.408 48.7321 124.747 54.6864 119.481 65.9962C125.181 71.9799 130.692 76.4981 136.012 79.5519C141.314 82.5952 147.317 83.5535 154.032 82.4246C163.159 72.8795 168.614 67.7013 170.506 66.809C173.615 65.342 177.804 67.1311 178.606 70.5944C179.109 72.7684 176.763 79.2226 171.547 90.1263C171.577 90.1558 171.607 90.1856 171.637 90.2158C171.938 90.5257 172.193 90.8763 172.396 91.2586ZM171.034 89.6937C176.106 79.0702 178.426 72.6972 177.974 70.7407C177.269 67.6958 173.531 66.0993 170.783 67.3958C168.997 68.2385 163.508 73.4508 154.427 82.9507C154.379 83.0011 154.316 83.0346 154.247 83.0464C147.344 84.2278 141.154 83.2513 135.689 80.1147C130.263 76.9998 124.653 72.3889 118.858 66.2829C118.766 66.1862 118.743 66.0431 118.799 65.9223C123.876 55.0461 125.562 49.0536 124.024 48.3366C122.515 47.6325 117.846 50.6556 110.285 57.373C110.93 57.9292 111.409 58.64 111.678 59.415C112.07 60.5433 112.015 61.8069 111.47 62.9751C110.931 64.1314 110.119 64.7317 109.017 65.1607C107.849 65.6154 106.372 65.8483 105.147 65.2768C104.286 64.8757 103.282 64.0112 102.811 63.2635C101.979 61.9408 102.135 60.4746 102.845 58.9528C103.33 57.913 104.145 56.9596 105.105 56.5006C106.194 55.9799 107.471 56.0073 108.675 56.4463C109.736 53.8175 111.662 49.5125 114.458 43.5175C120.435 30.6995 128.732 27.3601 139.481 33.6891C146.516 37.8314 149.575 46.0303 148.686 58.2325C159.188 45.0496 170.761 42.9336 183.273 51.9348C191.247 57.6715 194.154 63.6487 193.178 69.7296C192.682 72.8224 191.321 75.5228 189.174 78.4969C188.894 78.8847 188.052 80.0149 188.093 79.9598C187.763 80.4086 187.586 80.6735 187.504 80.8488C186.808 82.3408 181.908 85.9648 172.663 91.8586C172.852 92.3786 172.953 92.9419 172.953 93.5302C172.953 94.8061 172.47 95.6935 171.653 96.548C170.786 97.4537 169.546 98.2889 168.194 98.2889C167.245 98.2889 165.969 97.93 165.227 97.4512C163.913 96.6041 163.435 95.2092 163.435 93.5302C163.435 92.3829 163.771 91.1743 164.448 90.3525C165.32 89.2918 166.713 88.7715 168.194 88.7715C169.247 88.7715 170.238 89.1142 171.034 89.6937Z" fill="black"/>
<path d="M289.496 115.219L272.525 118.949C266.691 120.231 263.001 126 264.283 131.834C264.326 132.029 264.374 132.223 264.428 132.416C266.567 140.089 268.208 145.687 269.352 149.208C271.789 156.706 279.841 160.809 287.339 158.373C287.485 158.325 287.631 158.275 287.776 158.223L293.218 156.258L292.569 159.502L310.955 151.066L310.459 143.453C310.357 141.902 310.06 140.369 309.573 138.893L304.607 123.831C302.523 117.511 295.996 113.791 289.496 115.219Z" fill="white"/>
<path fill-rule="evenodd" clip-rule="evenodd" d="M270.074 136.791L267.871 151.597L277.172 157.03L282.147 147.166L270.074 136.791ZM288.459 130.518L286.041 144.523L296.398 152.921L300.317 138.365L288.459 130.518Z" fill="#56FFB2"/>
<path d="M292.012 159.233C291.959 159.493 292.224 159.703 292.465 159.593L310.858 151.178C310.98 151.122 311.055 150.997 311.047 150.862L310.574 143.358C310.474 141.764 310.17 140.19 309.67 138.674L304.802 123.911C302.665 117.428 295.967 113.615 289.301 115.087L272.332 118.832C266.325 120.158 262.53 126.104 263.856 132.111C263.899 132.308 263.948 132.503 264.002 132.697C266.106 140.257 267.723 145.776 268.854 149.256C271.323 156.856 279.486 161.015 287.085 158.545C287.232 158.498 287.379 158.447 287.524 158.395L292.554 156.58L292.012 159.233ZM293.305 156.144C293.356 155.896 293.116 155.688 292.877 155.774L287.304 157.785C287.165 157.835 287.025 157.883 286.885 157.928C279.626 160.287 271.83 156.314 269.471 149.056C268.344 145.587 266.729 140.075 264.627 132.523C264.576 132.341 264.53 132.157 264.489 131.971C263.241 126.314 266.815 120.715 272.472 119.466L289.441 115.72C295.782 114.321 302.153 117.948 304.186 124.114L309.054 138.877C309.537 140.341 309.83 141.86 309.927 143.398L310.385 150.681L292.776 158.737L293.305 156.144Z" fill="black"/>
<path fill-rule="evenodd" clip-rule="evenodd" d="M292.471 145.208C292.596 145.355 292.558 145.509 292.357 145.668C292.169 145.817 291.852 145.848 291.806 145.861C291.364 145.979 290.909 145.724 290.78 145.285H290.78C290.522 144.412 290.375 143.905 290.337 143.765C290.304 143.64 290.18 143.144 289.966 142.276C289.875 141.91 290.095 141.539 290.459 141.441C290.981 141.301 291.519 141.604 291.671 142.123C291.819 142.632 291.897 142.899 291.903 142.923C291.913 142.961 292.103 143.722 292.471 145.208ZM277.071 149.938C277.196 150.086 277.158 150.239 276.957 150.398C276.77 150.547 276.453 150.578 276.406 150.591C275.965 150.709 275.509 150.454 275.38 150.015C275.123 149.142 274.975 148.635 274.937 148.495C274.904 148.371 274.78 147.874 274.566 147.006C274.476 146.64 274.695 146.269 275.059 146.171C275.581 146.032 276.119 146.334 276.271 146.853C276.419 147.362 276.497 147.629 276.503 147.653C276.514 147.691 276.703 148.452 277.071 149.938ZM281.066 137.565C280.974 137.289 281.108 136.987 281.375 136.87C281.66 136.745 281.993 136.875 282.118 137.16L286.047 146.12C286.068 146.167 286.087 146.214 286.104 146.262C286.552 147.494 285.917 148.856 284.685 149.304L284.035 149.54C283.902 149.589 283.766 149.628 283.627 149.657C281.969 150.011 280.338 148.954 279.984 147.296C279.785 146.365 280.939 145.5 283.445 144.7L281.066 137.565Z" fill="black"/>
<path fill-rule="evenodd" clip-rule="evenodd" d="M144.129 95.9861C145.073 94.7811 145.556 94.163 145.58 94.132C145.595 94.1121 145.757 93.8867 146.067 93.4558L146.067 93.4558C146.383 93.0171 146.29 92.4066 145.858 92.0814C145.557 91.8545 145.13 91.9102 144.897 92.2068C144.345 92.9103 144.03 93.3134 143.953 93.416C143.865 93.532 143.557 93.9603 143.027 94.7007L143.027 94.7007C142.761 95.0725 142.84 95.5887 143.205 95.8639C143.243 95.8928 143.463 96.1232 143.696 96.1794C143.945 96.2397 144.09 96.1752 144.129 95.9861Z" fill="black"/>
<path fill-rule="evenodd" clip-rule="evenodd" d="M274.449 129.23C272.746 129.549 271.136 129.834 269.621 130.086C266.547 130.596 265.166 130.75 265.478 130.548L264.429 131.6C264.168 134.836 264.168 137.72 264.429 140.252C264.69 142.784 266.205 145.451 268.972 148.255C267.455 142.357 267.239 138.247 268.323 135.926C269.101 134.259 271.329 132.45 275.007 130.5C275.014 130.506 275.021 130.512 275.028 130.518L279.092 128.535C279.39 128.404 279.693 128.272 280.003 128.139C279.946 128.151 279.889 128.162 279.832 128.174L302.952 116.891C305.548 118.189 307.374 120.605 308.432 124.138C309.49 127.672 309.603 129.51 308.772 129.653C302.626 128.37 298.307 127.649 295.814 127.49C288.493 127.025 283.344 128.067 280.003 128.139C276.703 128.21 274.852 128.574 274.449 129.23Z" fill="white"/>
<path d="M267.327 145.862C265.537 142.093 265.473 138.148 267.138 134.049C267.205 133.883 267.395 133.803 267.561 133.871C267.727 133.938 267.807 134.127 267.739 134.293C266.024 138.515 266.218 142.536 268.323 146.384C267.266 141.551 267.221 138.09 268.206 135.981C269.022 134.233 271.297 132.386 275.032 130.405C275.075 130.382 275.121 130.37 275.167 130.368L278.536 128.724C276.392 128.863 275.158 129.176 274.903 129.592C274.855 129.67 274.776 129.724 274.686 129.741C272.98 130.061 271.368 130.346 269.851 130.598C268.437 130.832 267.38 130.992 266.677 131.077C266.319 131.12 266.051 131.144 265.867 131.149C265.807 131.151 265.754 131.151 265.707 131.148L264.92 131.937C264.67 135.106 264.673 137.931 264.929 140.411C265.108 142.149 265.906 143.967 267.327 145.862ZM308.195 124.088C308.188 124.085 308.182 124.082 308.175 124.079C306.755 123.369 305.191 122.8 303.483 122.373C301.779 121.947 299.859 121.734 297.721 121.734C297.542 121.734 297.397 121.589 297.397 121.409C297.397 121.23 297.542 121.085 297.721 121.085C299.91 121.085 301.883 121.304 303.64 121.743C305.167 122.125 306.585 122.618 307.892 123.223C306.85 120.482 305.261 118.561 303.126 117.446L281.645 127.929C281.857 127.913 282.083 127.894 282.325 127.873C282.848 127.827 284.872 127.631 284.928 127.626C289.102 127.234 292.236 127.118 296.011 127.358C298.514 127.517 302.82 128.235 308.94 129.512C309.218 129.395 309.269 128.669 309.031 127.352C308.982 127.361 308.929 127.36 308.878 127.345C306.442 126.628 303.717 126.054 300.704 125.624C297.696 125.194 294.905 125.051 292.332 125.194C292.153 125.204 292 125.067 291.99 124.888C291.98 124.709 292.117 124.556 292.296 124.546C294.914 124.401 297.747 124.546 300.795 124.982C303.77 125.407 306.47 125.97 308.894 126.673C308.752 126.03 308.555 125.28 308.299 124.424C308.265 124.31 308.23 124.199 308.195 124.088ZM302.987 116.792C303.077 116.747 303.184 116.748 303.274 116.793C305.956 118.134 307.838 120.623 308.92 124.237C310.051 128.016 310.171 129.964 309.004 130.165C308.963 130.172 308.922 130.171 308.882 130.163C302.751 128.882 298.444 128.163 295.97 128.006C292.235 127.768 289.132 127.883 284.989 128.272C284.935 128.277 282.908 128.473 282.382 128.519C281.511 128.596 280.842 128.639 280.25 128.654C279.962 128.778 279.679 128.901 279.411 129.019L275.347 131.002C275.31 131.02 275.271 131.031 275.232 131.034C271.674 132.933 269.527 134.685 268.794 136.255C267.751 138.489 267.964 142.536 269.463 148.367C269.545 148.687 269.15 148.911 268.918 148.675C266.103 145.823 264.553 143.093 264.284 140.477C264.02 137.925 264.02 135.021 264.283 131.766C264.289 131.689 264.322 131.617 264.377 131.563L265.344 130.593C265.377 130.542 265.423 130.504 265.48 130.468C265.625 130.374 265.775 130.409 265.874 130.5C266.033 130.494 266.276 130.472 266.599 130.433C267.291 130.349 268.34 130.191 269.744 129.958C271.221 129.713 272.786 129.436 274.442 129.127C275.039 128.427 276.857 128.089 279.997 128.011L302.987 116.792ZM279.754 128.161C279.619 128.323 279.688 128.579 279.87 128.663C279.941 128.661 280.012 128.659 280.084 128.658C279.79 128.665 279.662 128.33 279.817 128.134C279.796 128.143 279.775 128.152 279.754 128.161Z" fill="black"/>
<path d="M312.989 245.186C300.647 248.724 286.806 250.523 271.466 250.58L275.549 197.238C275.562 197.059 275.429 196.904 275.25 196.89C275.071 196.876 274.915 197.01 274.902 197.189L270.792 250.881C270.778 251.07 270.927 251.23 271.116 251.23C286.654 251.199 300.671 249.393 313.168 245.81C325.655 242.23 343.623 234.87 367.078 223.728C367.26 223.641 367.32 223.411 367.202 223.246L342.478 188.718H346.822C347.001 188.718 347.146 188.573 347.146 188.394C347.146 188.215 347.001 188.069 346.822 188.069H341.847C341.583 188.069 341.429 188.368 341.583 188.583L366.449 223.308C343.195 234.343 325.373 241.636 312.989 245.186Z" fill="black"/>
<path fill-rule="evenodd" clip-rule="evenodd" d="M304.466 133.958C304.71 130.354 306.539 128.717 309.953 129.045C315.074 129.538 317.879 141.35 307.88 143.321" fill="white"/>
<path d="M309.721 131.705C311.385 133.047 311.94 134.643 311.342 136.437C311.286 136.607 311.102 136.699 310.932 136.642C310.762 136.586 310.67 136.402 310.727 136.232C311.257 134.642 310.734 133.27 309.11 132.052C309.038 131.998 308.995 131.921 308.983 131.839C308.41 132.059 307.947 132.541 307.528 133.24C307.434 133.396 306.993 134.204 306.87 134.395C306.739 134.598 306.616 134.748 306.479 134.857C305.61 135.552 304.805 135.452 304.267 134.555C304.225 134.484 304.213 134.403 304.227 134.328C304.169 134.265 304.136 134.179 304.142 134.087C304.398 130.305 306.384 128.527 309.984 128.873C312.665 129.131 314.813 132.268 314.911 135.771C315.021 139.713 312.611 142.871 307.943 143.791C307.767 143.826 307.596 143.711 307.562 143.535C307.527 143.359 307.641 143.189 307.817 143.154C312.168 142.296 314.364 139.421 314.262 135.789C314.241 135.037 314.118 134.306 313.913 133.624C313.825 133.642 313.73 133.624 313.652 133.566C311.931 132.275 310.685 131.7 309.721 131.705ZM304.785 134.169C304.799 134.184 304.812 134.202 304.824 134.221C305.151 134.766 305.5 134.81 306.073 134.351C306.146 134.293 306.229 134.192 306.325 134.043C306.432 133.877 306.866 133.082 306.971 132.907C308.304 130.682 310.18 130.308 313.575 132.707C312.795 130.94 311.437 129.665 309.922 129.519C306.694 129.209 305.021 130.706 304.79 134.131C304.789 134.144 304.787 134.156 304.785 134.169Z" fill="black"/>
<path fill-rule="evenodd" clip-rule="evenodd" d="M63.7018 193.294L89.6242 207.238C90.3197 207.612 90.9353 208.118 91.4364 208.728C93.0139 210.65 93.4818 212.457 92.8402 214.149C91.7944 216.906 88.7115 218.293 85.9543 217.248C85.902 217.228 85.85 217.207 85.7984 217.186C61.7356 207.184 46.3195 198.202 39.5499 190.241C37.4003 187.713 35.5652 185.529 34.0445 183.69L34.0445 183.69C30.6189 179.547 31.2004 173.412 35.3433 169.986C36.5358 169 37.9461 168.313 39.4573 167.981C44.6975 166.829 49.7947 168.083 54.7489 171.741L68.376 179.633L75.6158 182.647L85.7821 176.59C87.3191 175.843 88.4728 175.482 89.243 175.509C90.0132 175.535 90.9505 175.968 92.0549 176.807C92.703 177.756 93.0635 178.477 93.1365 178.97C93.3036 180.098 92.7479 181.386 92.7039 181.782C92.631 182.437 92.1984 182.726 91.406 182.647C92.4031 182.818 93.1241 183.034 93.5691 183.296C94.014 183.558 94.5187 184.062 95.0832 184.81L95.0832 190.001L78.4278 202.331" fill="white"/>
<path d="M79.2085 201.391L63.6907 193.044C63.5329 192.959 63.3361 193.019 63.2512 193.176C63.1664 193.334 63.2255 193.531 63.3833 193.616L89.3057 207.559C89.9639 207.913 90.5465 208.392 91.0208 208.97C92.5304 210.809 92.9679 212.498 92.372 214.069C91.3898 216.659 88.4942 217.962 85.9045 216.98C85.8554 216.961 85.8066 216.942 85.7581 216.922C61.74 206.938 46.359 197.977 39.6323 190.066C37.4836 187.539 35.6494 185.357 34.1297 183.519C30.8184 179.514 31.3805 173.583 35.3853 170.272C36.538 169.319 37.9012 168.654 39.3621 168.333C44.507 167.203 49.5097 168.433 54.4215 172.058L67.8165 179.815C67.8456 179.906 67.9152 179.984 68.0124 180.021L75.6568 182.871C75.7514 182.906 75.857 182.895 75.9425 182.842L85.7254 176.708C86.2135 176.402 86.7509 176.184 87.3137 176.062C89.4044 175.612 90.9145 175.956 91.8914 177.074C93.2589 178.639 93.2554 180.937 91.9779 182.491C91.1032 182.367 90.1127 182.425 89.0097 182.662C88.2863 182.818 87.5954 183.098 86.968 183.49L75.8996 190.412L67.2959 187.214C67.1279 187.151 66.9411 187.237 66.8787 187.405C66.8162 187.573 66.9018 187.76 67.0697 187.822L75.8232 191.076C75.9176 191.111 76.0229 191.1 76.1083 191.047L87.312 184.04C87.8756 183.688 88.4963 183.436 89.1461 183.296C91.556 182.778 93.3028 183.175 94.4339 184.466C96.1905 186.47 95.9896 189.519 93.9851 191.276C93.8383 191.405 93.6838 191.524 93.5225 191.634L79.2114 201.389C79.2104 201.39 79.2094 201.39 79.2085 201.391ZM79.8524 201.737L93.888 192.17C94.071 192.046 94.2462 191.91 94.4127 191.764C96.6868 189.771 96.9147 186.312 94.9219 184.038C94.3195 183.351 93.5716 182.885 92.6828 182.637C93.952 180.854 93.8832 178.367 92.38 176.647C91.2298 175.331 89.4796 174.932 87.177 175.428C86.5405 175.565 85.9327 175.812 85.3807 176.158L75.7335 182.207L68.4928 179.507C68.4653 179.459 68.4252 179.417 68.3738 179.388L54.7768 171.516C49.7501 167.804 44.5583 166.527 39.2228 167.7C37.6612 168.043 36.2039 168.753 34.9718 169.772C30.6908 173.312 30.0899 179.652 33.6296 183.933C35.1513 185.773 36.9874 187.958 39.1379 190.487C45.9503 198.498 61.4016 207.5 85.509 217.521C85.5638 217.544 85.6189 217.566 85.6744 217.587C88.5991 218.696 91.8694 217.224 92.9787 214.299C93.6662 212.487 93.1678 210.563 91.5223 208.558C90.9944 207.915 90.3458 207.382 89.6131 206.987L79.8524 201.737Z" fill="black"/>
<path d="M158.859 185.467C160.735 179.902 161.272 176.26 161.164 168.159C161.162 167.98 161.305 167.833 161.484 167.83C161.664 167.828 161.811 167.971 161.813 168.151C161.922 176.323 161.374 180.037 159.474 185.674C156.02 195.923 154.001 201.38 153.325 202.252C153.272 202.32 153.194 202.364 153.108 202.375C148.066 202.994 143.653 201.31 139.898 197.338C136.145 193.368 134.566 188.26 135.158 182.04L134.903 166.331C134.9 166.151 135.043 166.004 135.222 166.001C135.401 165.998 135.549 166.141 135.552 166.32L135.806 182.065C135.229 188.142 136.751 193.064 140.37 196.892C143.95 200.679 148.113 202.292 152.885 201.748C153.571 200.658 155.589 195.17 158.859 185.467Z" fill="black"/>
<path d="M128.843 148.28C128.183 147.944 127.587 147.496 127.081 146.956C125.248 144.999 124.612 143.064 125.216 141.179C126.139 138.3 129.221 136.714 132.101 137.637C132.311 137.704 132.518 137.785 132.719 137.877L140.075 141.333C142.479 142.87 142.932 143.294 141.433 142.603C139.436 141.684 136.441 140.305 132.448 138.467C132.27 138.385 132.088 138.314 131.903 138.255C129.364 137.441 126.647 138.839 125.834 141.377C125.31 143.012 125.869 144.714 127.555 146.512C128.009 146.997 128.545 147.4 129.137 147.701L140.913 153.696C141.003 153.742 141.067 153.826 141.085 153.925L142.804 163.105C142.837 163.281 142.721 163.45 142.545 163.483C142.369 163.516 142.199 163.4 142.166 163.224L140.477 154.202L128.843 148.28Z" fill="black"/>
<path d="M138.148 140.26C137.565 139.805 137.065 139.251 136.671 138.625C135.245 136.354 134.99 134.333 135.942 132.598C137.398 129.948 140.726 128.979 143.376 130.434C143.571 130.541 143.758 130.659 143.938 130.788L154.665 138.347C157.76 140.528 159.737 143.96 160.071 147.732L161.834 167.618C161.85 167.796 161.718 167.954 161.539 167.97C161.361 167.986 161.203 167.854 161.187 167.675L159.425 147.789C159.108 144.208 157.23 140.948 154.291 138.877L143.561 131.317C143.4 131.201 143.235 131.097 143.064 131.003C140.728 129.72 137.794 130.574 136.511 132.911C135.685 134.415 135.91 136.192 137.221 138.279C137.574 138.842 138.023 139.339 138.547 139.748L148.963 147.88C149.037 147.938 149.082 148.024 149.087 148.118L150.041 165.09C150.051 165.269 149.914 165.422 149.735 165.432C149.556 165.443 149.403 165.306 149.393 165.127L148.448 148.301L138.148 140.26Z" fill="black"/>
<path fill-rule="evenodd" clip-rule="evenodd" d="M287.132 138.676C286.795 137.573 287.279 136.445 288.585 135.291C290.544 133.561 292.308 134.153 292.625 135.187C292.941 136.222 291.763 136.808 290.332 136.567C289.378 136.406 288.312 137.109 287.132 138.676ZM276.83 143.705C275.012 142.969 273.735 142.916 273 143.545C271.898 144.489 270.586 144.593 270.325 143.543C270.063 142.494 271.271 141.078 273.841 141.552C275.555 141.868 276.551 142.586 276.83 143.705Z" fill="white"/>
<path d="M287.293 138.909C287.134 139.121 286.801 139.063 286.724 138.809C286.344 137.565 286.88 136.316 288.273 135.086C290.159 133.421 292.371 133.606 292.837 135.13C293.235 136.432 291.865 137.209 290.18 136.925C289.378 136.79 288.408 137.429 287.293 138.909ZM290.288 136.285C291.575 136.502 292.43 136.018 292.217 135.32C291.911 134.321 290.276 134.183 288.702 135.573C287.776 136.391 287.304 137.168 287.259 137.916C288.323 136.681 289.327 136.123 290.288 136.285ZM277.047 143.665C277.111 143.922 276.856 144.143 276.61 144.044C274.893 143.349 273.732 143.3 273.114 143.83C271.816 144.941 270.242 144.981 269.912 143.66C269.527 142.114 271.327 140.815 273.802 141.271C275.629 141.608 276.732 142.403 277.047 143.665ZM273.684 141.909C271.62 141.529 270.289 142.489 270.542 143.503C270.718 144.211 271.7 144.186 272.692 143.337C273.432 142.703 274.58 142.664 276.128 143.175C275.705 142.556 274.9 142.133 273.684 141.909Z" fill="black"/>
<path d="M263.817 133.712C265.431 134.833 270.328 133.984 278.509 131.166C286.691 128.349 294.965 123.257 303.193 116.807L240.897 34.6387L263.817 133.712Z" fill="white"/>
<path d="M264.257 133.602C265.998 134.811 270.937 133.956 279.24 131.096C287.457 128.267 295.693 123.616 303.947 117.145C304.086 117.036 304.113 116.836 304.006 116.695L241.781 34.0667C241.57 33.7867 241.127 33.9936 241.206 34.335L264.126 133.408C264.144 133.487 264.191 133.556 264.257 133.602ZM264.728 133.133L242.182 35.6787L303.296 116.831C295.18 123.156 287.091 127.706 279.028 130.483C271.143 133.199 266.324 134.063 264.728 133.133Z" fill="black"/>
<path d="M311.348 276.956C311.348 276.956 291.196 293.179 291.196 301.398C291.196 309.618 310.448 343.145 310.448 349.418C310.448 355.691 301.146 375.591 271.08 375.591C252.834 375.591 226.005 375.57 190.593 375.53C187.248 375.526 184.539 372.811 184.543 369.466C184.545 368.311 184.876 367.18 185.499 366.207C187.821 362.581 190.392 358.787 193.211 354.826C201.214 343.578 207.703 332.33 214.625 327.355C221.546 322.38 229.152 324.808 223.745 314.426C220.14 307.504 214.385 300.685 206.48 293.97" fill="white"/>
<path d="M311.348 276.956C311.348 276.956 291.196 293.179 291.196 301.398C291.196 309.618 310.448 343.145 310.448 349.418C310.448 355.691 301.146 375.591 271.08 375.591C252.834 375.591 226.005 375.57 190.593 375.53C187.248 375.526 184.539 372.811 184.543 369.466C184.545 368.311 184.876 367.18 185.499 366.207C187.821 362.581 190.392 358.787 193.211 354.826C201.214 343.578 207.703 332.33 214.625 327.355C221.546 322.38 229.152 324.808 223.745 314.426C220.14 307.504 214.385 300.685 206.48 293.97" fill="white"/>
<path fill-rule="evenodd" clip-rule="evenodd" d="M224.001 314.593C233.374 321.803 238.998 326.923 240.872 329.951C242.747 332.979 234.095 332.114 214.916 327.355L224.001 314.593ZM292.097 298.661C291.722 301.244 291.722 303.335 292.097 304.933C292.472 306.532 293.337 308.623 294.693 311.206L276.09 306.88L292.097 298.661Z" fill="black"/>
<path d="M311.361 276.777C311.321 276.81 311.244 276.872 311.133 276.963C310.947 277.115 310.733 277.292 310.491 277.494C309.8 278.07 309.031 278.726 308.202 279.449C305.835 281.515 303.468 283.711 301.258 285.941C299.397 287.818 297.731 289.639 296.307 291.374C292.953 295.46 291.089 298.883 291.089 301.472C291.089 304.912 293.826 311.665 300.211 325.217C300.38 325.577 300.556 325.95 300.745 326.351C305.662 336.765 305.92 337.317 307.359 340.628C309.333 345.172 310.34 348.104 310.34 349.492C310.34 353.424 307.246 359.76 302.032 364.695C294.954 371.395 284.708 375.34 271.297 375.34C253.051 375.34 226.222 375.32 190.81 375.279C187.644 375.275 185.081 372.706 185.084 369.54C185.085 368.447 185.399 367.377 185.989 366.456C188.308 362.835 190.876 359.045 193.692 355.088C195.773 352.162 202.498 342.273 202.459 342.331C205.738 337.588 208.151 334.4 210.509 331.825C212.075 330.115 213.568 328.744 215.031 327.692C215.362 327.455 215.702 327.229 216.052 327.013C217.026 326.413 218.047 325.907 219.253 325.402C219.904 325.13 221.952 324.338 222.171 324.25C226.652 322.434 227.367 320.336 224.249 314.35C220.623 307.388 214.841 300.538 206.906 293.797C206.77 293.681 206.565 293.697 206.449 293.834C206.333 293.971 206.35 294.175 206.486 294.291C214.361 300.981 220.089 307.768 223.673 314.649C225.284 317.743 225.759 319.734 225.311 321.049C224.94 322.134 223.999 322.808 221.927 323.648C221.717 323.733 219.663 324.527 219.002 324.803C217.767 325.321 216.717 325.84 215.712 326.46C215.348 326.684 214.995 326.919 214.652 327.165C213.149 328.245 211.625 329.646 210.03 331.387C207.647 333.989 205.219 337.196 201.925 341.962C201.961 341.909 195.24 351.792 193.163 354.712C190.341 358.677 187.768 362.475 185.443 366.106C184.786 367.131 184.437 368.322 184.435 369.54C184.431 373.064 187.285 375.924 190.809 375.928C226.221 375.969 253.05 375.989 271.297 375.989C284.872 375.989 295.278 371.983 302.478 365.166C307.814 360.115 310.989 353.614 310.989 349.492C310.989 347.976 309.97 345.009 307.954 340.369C306.511 337.049 306.254 336.498 301.332 326.074C301.143 325.673 300.967 325.3 300.798 324.941C294.483 311.537 291.737 304.764 291.737 301.472C291.737 299.08 293.545 295.762 296.808 291.785C298.218 290.068 299.872 288.261 301.719 286.397C303.917 284.179 306.273 281.995 308.629 279.938C309.454 279.218 310.22 278.565 310.906 277.992C311.147 277.792 311.36 277.616 311.544 277.465C311.654 277.375 311.729 277.314 311.768 277.283C311.908 277.17 311.93 276.966 311.817 276.827C311.705 276.687 311.501 276.665 311.361 276.777Z" fill="black"/>
<path fill-rule="evenodd" clip-rule="evenodd" d="M276.09 244.701C267.655 244.701 263.545 247.229 249.052 253.718C234.56 260.207 251.061 269.893 226.557 273.329C202.052 276.764 195.347 282.49 202.917 292.032C210.488 301.575 220.754 305.853 242.717 304.629C264.681 303.405 252.73 284.217 268.52 284.217C284.31 284.217 310.204 289.742 312.8 276.764C315.396 263.786 284.526 244.701 276.09 244.701Z" fill="black"/>
<path fill-rule="evenodd" clip-rule="evenodd" d="M301.34 90.2836L290.66 62.8552C290.373 62.1193 289.945 61.4466 289.401 60.8748C287.686 59.0749 285.949 58.3903 284.192 58.821C281.328 59.5229 279.575 62.4138 280.277 65.2779C280.29 65.3322 280.304 65.3863 280.319 65.4402C287.314 90.5425 294.35 106.938 301.427 114.628C308.689 122.518 319.528 125.114 333.942 122.414L333.293 95.809L324.736 95.8574L313.983 82.2826L313.334 79.9032L321.338 69.7369C322.203 66.8529 321.842 64.7619 320.256 63.4641C318.67 62.1663 317.012 62.1663 315.281 63.4641L294.732 73.8467" fill="white"/>
<path d="M333.512 122.32C319.335 124.917 308.7 122.332 301.567 114.582C294.535 106.941 287.516 90.5827 280.534 65.527C280.519 65.4764 280.506 65.4256 280.494 65.3745C279.834 62.6845 281.481 59.9693 284.171 59.31C285.803 58.91 287.426 59.5501 289.067 61.2725C289.583 61.8136 289.988 62.4504 290.259 63.1468L300.939 90.5752C301.004 90.7422 301.192 90.8249 301.359 90.7599C301.526 90.6948 301.609 90.5068 301.544 90.3398L290.864 62.9114C290.562 62.1361 290.111 61.4273 289.537 60.8249C287.748 58.9474 285.899 58.2183 284.016 58.6797C280.978 59.4243 279.119 62.4908 279.863 65.529C279.878 65.5866 279.893 65.644 279.908 65.7012C286.916 90.8501 293.968 107.283 301.09 115.021C308.436 123.003 319.387 125.626 333.903 122.907C334.06 122.878 334.172 122.74 334.168 122.58L333.519 95.975C333.515 95.7982 333.37 95.6575 333.193 95.6585L324.635 95.7069C324.456 95.7079 324.312 95.854 324.313 96.0332C324.314 96.2124 324.46 96.3568 324.639 96.3558L332.878 96.3092L333.512 122.32Z" fill="black"/>
<path d="M320.948 70.8698C321.358 70.3641 321.678 69.791 321.891 69.1759C322.665 66.9509 322.482 65.1651 321.316 63.8631C319.537 61.8764 316.481 61.7031 314.491 63.476C314.345 63.6059 314.207 63.7445 314.078 63.891L304.079 75.2532C303.961 75.3877 303.974 75.5928 304.109 75.7111C304.243 75.8295 304.448 75.8164 304.567 75.6819L314.566 64.3197C314.677 64.1929 314.796 64.073 314.923 63.9606C316.646 62.4256 319.292 62.5758 320.832 64.296C321.823 65.4019 321.981 66.9427 321.278 68.9629C321.09 69.5067 320.807 70.0135 320.444 70.4606L313.164 79.4231C313.1 79.5015 313.077 79.605 313.1 79.7031L314.998 87.638C315.039 87.8123 315.214 87.9198 315.389 87.8781C315.563 87.8364 315.67 87.6613 315.629 87.4871L313.768 79.708L320.948 70.8698Z" fill="black"/>
<path fill-rule="evenodd" clip-rule="evenodd" d="M307.201 96.3587L314.024 92.0398C314.047 89.563 314.034 87.9004 313.984 87.052C313.786 83.6247 313.985 82.0161 315.903 81.1002C321.555 78.3998 322.534 85.3047 323.934 89.864C325.335 94.4233 325.294 97.6283 321.936 100.749" fill="white"/>
<path fill-rule="evenodd" clip-rule="evenodd" d="M307.32 87.6178L305.157 78.5331L313.477 68.2667C313.919 67.721 314.263 67.1026 314.493 66.439C315.337 64.0081 315.143 62.1037 313.913 60.7257C312.018 58.6042 308.762 58.4205 306.64 60.3154C306.485 60.4541 306.338 60.6022 306.201 60.7587L295.381 73.1975" fill="white"/>
<path d="M306.986 95.9309C306.835 96.0267 306.79 96.2271 306.886 96.3785C306.982 96.53 307.182 96.575 307.333 96.4792L314.157 92.1603C314.25 92.1013 314.307 91.9992 314.308 91.8891C314.331 89.4051 314.318 87.7376 314.268 86.8796C314.054 83.201 314.388 82.0103 316.002 81.2393C319.082 79.7677 320.791 81.0784 322.142 84.928C322.382 85.6099 322.598 86.3255 322.888 87.3599C322.942 87.5535 323.173 88.3888 323.235 88.6073C323.368 89.0836 323.477 89.4572 323.584 89.8056C325.094 94.7255 324.684 97.5608 321.675 100.358C321.544 100.48 321.536 100.685 321.658 100.816C321.78 100.947 321.985 100.955 322.117 100.833C325.334 97.843 325.781 94.751 324.204 89.6151C324.099 89.2726 323.992 88.9037 323.86 88.4321C323.799 88.2149 323.567 87.3797 323.513 87.185C323.22 86.1382 323 85.4111 322.755 84.713C321.293 80.5488 319.239 78.9736 315.722 80.6537C313.791 81.5762 313.393 82.9989 313.62 86.9172C313.667 87.7358 313.681 89.3343 313.661 91.7065L306.986 95.9309Z" fill="black"/>
<path d="M313.864 68.4005C314.329 67.8256 314.692 67.174 314.934 66.4749C315.813 63.9418 315.607 61.9151 314.289 60.4391C312.275 58.184 308.814 57.9887 306.559 60.0029C306.394 60.1504 306.237 60.3078 306.091 60.4742L294.665 73.4898C294.547 73.6245 294.56 73.8295 294.695 73.9477C294.83 74.0659 295.035 74.0526 295.153 73.9179L306.579 60.9023C306.708 60.7556 306.845 60.6169 306.991 60.4869C308.979 58.7114 312.03 58.8835 313.805 60.8713C314.948 62.1513 315.129 63.9335 314.321 66.2622C314.103 66.8902 313.778 67.4755 313.359 67.992L305.04 78.2583C304.976 78.3365 304.953 78.4398 304.976 78.5377L307.139 87.6225C307.181 87.7968 307.356 87.9045 307.53 87.863C307.704 87.8215 307.812 87.6465 307.77 87.4722L305.644 78.5428L313.864 68.4005Z" fill="black"/>
<path fill-rule="evenodd" clip-rule="evenodd" d="M333.185 92.2986L328.044 96.7748L333.238 103.208L328.909 108.888L333.288 114.334C330.436 117.44 328.976 119.013 328.909 119.054C328.841 119.095 330.461 120.73 333.767 123.96L333.185 92.2986Z" fill="black"/>
<path d="M298.136 200.785C297.15 200.557 295.933 199.889 295.274 199.211C294.165 198.071 293.895 196.557 294.327 194.689C294.614 193.446 295.274 192.307 296.146 191.636C297.28 190.765 298.832 190.512 300.423 190.879C301.785 191.194 302.954 192.047 303.657 193.209C304.328 194.319 304.537 195.656 304.232 196.976C303.944 198.223 303.293 199.071 302.149 199.822C300.845 200.678 299.415 201.08 298.136 200.785ZM298.282 200.153C299.362 200.402 300.623 200.047 301.793 199.279C302.805 198.615 303.352 197.903 303.6 196.83C303.867 195.673 303.685 194.51 303.102 193.545C302.489 192.532 301.467 191.786 300.277 191.512C298.865 191.185 297.51 191.406 296.542 192.15C295.798 192.722 295.214 193.729 294.959 194.835C294.573 196.506 294.803 197.796 295.739 198.759C296.309 199.346 297.415 199.953 298.282 200.153ZM300.022 221.152C299.036 220.925 297.819 220.257 297.16 219.578C296.051 218.438 295.781 216.924 296.213 215.056C296.5 213.813 297.159 212.674 298.032 212.003C299.166 211.132 300.718 210.879 302.309 211.246C303.671 211.561 304.84 212.414 305.543 213.576C306.214 214.687 306.423 216.023 306.118 217.343C305.83 218.59 305.179 219.438 304.035 220.189C302.731 221.045 301.301 221.448 300.022 221.152ZM300.168 220.52C301.248 220.769 302.509 220.414 303.679 219.647C304.691 218.982 305.238 218.27 305.486 217.197C305.753 216.041 305.571 214.877 304.988 213.912C304.375 212.899 303.353 212.154 302.163 211.879C300.751 211.553 299.396 211.773 298.428 212.517C297.684 213.089 297.1 214.097 296.845 215.202C296.459 216.873 296.689 218.163 297.625 219.126C298.195 219.713 299.301 220.32 300.168 220.52Z" fill="black"/>
<path fill-rule="evenodd" clip-rule="evenodd" d="M223.352 24.3123C223.12 22.9206 223.173 21.1955 224.433 19.3373C224.638 19.0359 225.143 18.6033 225.948 18.0395L227.678 16.7417L240.224 15.2276C241.264 14.733 241.985 14.3004 242.387 13.9297C245.064 11.4575 247.007 8.78976 248.66 7.4406C250.081 6.28055 251.334 6.27383 252.12 6.14277C254.027 5.825 255.685 7.91594 257.095 12.4156L258.177 18.6884L240.224 28.4221C237.219 30.6585 235.2 31.9563 234.167 32.3156C232.79 32.7947 231.75 32.4259 231.139 31.883C229.841 30.7294 230.13 29.071 232.004 26.908C229.491 27.5838 227.761 27.8002 226.813 27.5569C225.139 27.1272 223.508 25.2482 223.352 24.3123Z" fill="white"/>
<path fill-rule="evenodd" clip-rule="evenodd" d="M266.515 232.625L277.534 242.143C281.639 245.688 283.73 251.029 283.125 256.418L282.204 264.62C281.728 267.482 280.371 269.23 278.133 269.864C275.896 270.498 274.537 270.735 274.057 270.575C272.563 272.782 271.285 274.132 270.225 274.627C269.165 275.121 267.515 275.136 265.277 274.67C263.473 277.14 262.006 278.633 260.877 279.149C260.445 279.347 259.903 279.474 259.253 279.53C257.067 279.719 254.92 278.861 253.468 277.216L250.062 273.358C246.772 269.632 245.347 264.616 246.186 259.717L246.199 259.64L244.779 252.648L239.91 246.685C241.802 242.633 245.828 238.878 251.987 235.418C258.146 231.959 262.989 231.028 266.515 232.625Z" fill="white"/>
<path d="M244.358 252.996L239.54 247.095C239.461 246.999 239.444 246.866 239.497 246.753C241.422 242.631 245.496 238.831 251.71 235.341C257.95 231.836 262.89 230.886 266.53 232.535L266.608 232.585L277.628 242.103C281.813 245.718 283.946 251.164 283.329 256.66L282.406 264.878C281.91 267.857 280.471 269.711 278.103 270.381C276.074 270.956 274.764 271.212 274.087 271.139C272.613 273.286 271.341 274.614 270.243 275.126C269.14 275.641 267.495 275.67 265.297 275.235C263.518 277.646 262.061 279.115 260.894 279.649C260.424 279.864 259.847 280 259.162 280.059C256.873 280.257 254.626 279.358 253.106 277.636L249.7 273.778C246.345 269.979 244.892 264.864 245.748 259.867L245.751 259.85L244.358 252.996ZM266.22 233.107C262.811 231.588 258.08 232.507 252.027 235.907C246.016 239.283 242.067 242.932 240.172 246.844L244.912 252.648C244.945 252.689 244.968 252.737 244.978 252.788L246.399 259.78C246.407 259.82 246.407 259.86 246.401 259.9L246.387 259.977C245.564 264.78 246.961 269.696 250.186 273.349L253.592 277.206C254.977 278.774 257.022 279.593 259.106 279.412C259.722 279.359 260.228 279.24 260.624 279.059C261.687 278.573 263.123 277.111 264.896 274.684C264.971 274.581 265.1 274.532 265.224 274.558C267.4 275.01 268.986 274.996 269.969 274.538C270.962 274.075 272.206 272.76 273.67 270.598C273.751 270.478 273.903 270.427 274.041 270.473C274.43 270.602 275.768 270.368 277.926 269.757C280.034 269.16 281.309 267.518 281.763 264.789L282.684 256.587C283.277 251.304 281.227 246.069 277.204 242.594L266.22 233.107Z" fill="black"/>
<path d="M273.976 259.013C273.984 258.834 274.136 258.696 274.315 258.704C274.494 258.712 274.632 258.864 274.624 259.043L274.075 270.914C274.066 271.093 273.914 271.232 273.735 271.223C273.556 271.215 273.418 271.063 273.426 270.884L273.976 259.013ZM264.723 262.925C264.723 262.746 264.869 262.601 265.048 262.601C265.227 262.601 265.372 262.746 265.372 262.925L265.372 275.225C265.372 275.405 265.227 275.55 265.048 275.55C264.869 275.55 264.723 275.405 264.723 275.225L264.723 262.925ZM253.862 272.605C253.935 272.768 253.861 272.96 253.697 273.033C253.533 273.106 253.342 273.032 253.269 272.868L244.469 253.078C244.396 252.914 244.47 252.722 244.634 252.65C244.798 252.577 244.989 252.651 245.062 252.814L253.862 272.605ZM239.791 246.89C242.531 241.698 246.136 238.093 250.606 236.074C252.516 235.212 255.317 233.463 257.528 232.83C258.909 232.434 261.028 232.023 263.368 232.181C264.039 232.226 265.048 232.442 266.396 232.83L263.368 236.723L256.446 234.128C254.932 238.309 254.211 240.4 254.283 240.4C254.355 240.4 251.687 240.184 246.28 239.751L246.28 246.457L239.791 246.89Z" fill="black"/>
<path fill-rule="evenodd" clip-rule="evenodd" d="M240.224 28.6387C241.892 26.5206 242.973 24.8623 243.468 23.6637C243.963 22.465 244.252 20.8067 244.334 18.6887C246.4 19.5539 248.564 19.9865 250.823 19.9865C253.082 19.9865 255.533 19.5539 258.177 18.6887C257.011 20.454 256.002 21.8239 255.149 22.7984C253.097 25.1435 250.12 27.0351 246.28 27.9897C245.062 28.2926 243.044 28.5089 240.224 28.6387ZM225.515 17.1745C225.013 14.9175 224.653 12.8987 224.434 11.118C224.214 9.33731 223.998 6.66956 223.785 3.11475C227.646 7.04281 230.674 9.92687 232.869 11.7669C235.065 13.607 237.011 14.7606 238.71 15.2278C239.229 15.2162 239.517 15.2162 239.575 15.2278C240.165 15.3466 238.665 15.8105 236.547 16.093C234.117 16.4169 230.44 16.7774 225.515 17.1745Z" fill="#FFF000"/>
<path d="M109.322 168.96C115.036 176.016 125.387 177.104 132.443 171.39C139.499 165.677 140.587 155.325 134.873 148.269C129.16 141.213 118.808 140.125 111.752 145.839C104.696 151.553 103.608 161.904 109.322 168.96Z" fill="white"/>
<path d="M113.23 172.893C111.732 171.943 110.359 170.736 109.181 169.281C103.355 162.086 104.464 151.53 111.659 145.703C118.854 139.877 129.41 140.987 135.236 148.182C141.063 155.377 139.953 165.933 132.758 171.759C128.803 174.962 123.833 176.069 119.19 175.221C117.062 174.972 115.063 174.242 113.23 172.893ZM108.129 166.576C107.765 165.924 107.45 165.253 107.184 164.569C107.304 164.857 107.431 165.143 107.564 165.429C107.749 165.825 107.937 166.207 108.129 166.576ZM109.224 149.182C109.553 150.894 108.845 159.546 117.234 165.693C124.002 170.652 130.75 170.031 137.479 163.828C137.472 163.869 137.465 163.909 137.457 163.949C139.187 158.88 138.352 153.06 134.732 148.59C129.131 141.673 118.984 140.607 112.067 146.208C110.972 147.095 110.022 148.097 109.224 149.182Z" fill="black"/>
<path d="M35.3832 122.514C44.4623 122.514 51.8224 115.154 51.8224 106.075C51.8224 96.9958 44.4623 89.6357 35.3832 89.6357C26.3041 89.6357 18.9441 96.9958 18.9441 106.075C18.9441 115.154 26.3041 122.514 35.3832 122.514Z" fill="white"/>
<path d="M23.3794 94.3738C26.4241 91.2511 30.6771 89.312 35.383 89.312C44.6412 89.312 52.1466 96.8173 52.1466 106.076C52.1466 115.334 44.6412 122.839 35.383 122.839C33.9468 122.839 32.5529 122.659 31.2226 122.319C29.0966 121.866 27.1159 120.94 25.433 119.919C22.578 118.187 20.4933 115.536 19.5333 111.549C18.941 109.834 18.6194 107.992 18.6194 106.076C18.6194 103.021 19.4366 100.156 20.8645 97.6896C21.5144 96.4907 22.345 95.378 23.3794 94.3738H23.3794ZM27.2909 92.1369C26.7545 93.9842 22.6706 101.43 27.596 110.402C31.5589 117.62 37.9529 119.976 46.7778 117.47C49.6939 114.554 51.4976 110.526 51.4976 106.076C51.4976 97.1757 44.2829 89.9609 35.383 89.9609C32.4334 89.9609 29.669 90.7534 27.2909 92.1369Z" fill="black"/>
<path d="M57.5501 35.9523C64.2971 42.0274 74.6915 41.4826 80.7666 34.7355C86.8417 27.9885 86.297 17.5941 79.5499 11.519C72.8028 5.44388 62.4084 5.98863 56.3333 12.7357C50.2582 19.4828 50.803 29.8772 57.5501 35.9523Z" fill="white"/>
<path d="M67.6038 7.15178C71.9559 6.86845 76.414 8.27325 79.9111 11.4221C86.7914 17.6171 87.3469 28.2167 81.1519 35.0969C74.9569 41.9771 64.3573 42.5326 57.4771 36.3376C55.9842 34.9935 54.7892 33.442 53.8962 31.7661C53.0739 30.3856 52.4632 28.9268 52.0367 27.5097C51.0743 24.3119 51.2988 20.947 53.253 17.342C53.9607 15.6709 54.9539 14.0872 56.2363 12.6628C58.2806 10.3925 60.8045 8.81079 63.5161 7.93312C64.8013 7.47702 66.1631 7.20584 67.6038 7.15178L67.6038 7.15178ZM72.0073 8.10678C70.3726 9.1206 62.3552 11.9217 60.0126 21.8843C58.1427 29.8362 61.1786 35.8711 69.1202 39.989C73.3823 39.8755 77.5915 38.0813 80.6696 34.6627C86.6248 28.0488 86.0908 17.8595 79.4769 11.9043C77.285 9.93072 74.7004 8.66983 72.0073 8.10678Z" fill="black"/>
<path d="M202.747 125.947C211.556 128.144 220.478 122.783 222.675 113.974C224.871 105.164 219.51 96.2423 210.701 94.0458C201.892 91.8494 192.97 97.2103 190.773 106.02C188.577 114.829 193.938 123.751 202.747 125.947Z" fill="white"/>
<path d="M197.88 95.7104C201.59 93.4171 206.185 92.5645 210.751 93.7029C219.735 95.9427 225.201 105.041 222.962 114.024C220.722 123.007 211.624 128.474 202.641 126.234C200.63 125.733 198.795 124.888 197.184 123.777C195.87 122.967 194.696 122.006 193.693 120.994C191.341 118.622 189.96 115.546 189.993 111.445C189.833 109.637 189.967 107.773 190.43 105.913C191.169 102.949 192.655 100.367 194.637 98.3194C195.558 97.3133 196.633 96.4345 197.88 95.7104ZM202.216 94.4863C201.249 96.1489 195.485 102.386 198.094 112.282C200.228 120.379 205.961 124.151 215.292 123.599C218.683 121.461 221.286 118.063 222.332 113.867C224.485 105.232 219.23 96.4857 210.594 94.3326C207.733 93.619 204.859 93.7191 202.216 94.4863Z" fill="black"/>
<path d="M241.359 28.8568C241.029 28.8157 240.697 28.7628 240.364 28.6983C240.338 28.6932 240.313 28.685 240.29 28.6742C240.105 28.8541 239.915 29.0315 239.72 29.2066C238.859 29.9792 237.947 30.6638 236.974 31.2997C236.615 31.5337 236.269 31.7483 235.886 31.9766C235.759 32.0521 235.244 32.3548 235.144 32.4158C233.463 33.4374 230.78 32.5108 230.299 30.9815C230.048 30.1815 230.431 29.0713 231.417 27.6151C227.279 28.4335 224.607 27.8203 223.461 25.7086C222.528 23.9891 222.595 21.5938 223.686 19.6741C224.141 18.8735 224.746 18.1886 225.488 17.6406C224.321 14.8171 223.599 9.69855 223.311 2.26209C223.299 1.95119 223.689 1.80324 223.887 2.04392C232.022 11.9745 237.699 16.0681 240.779 14.4334C242.267 13.6435 243.431 12.5969 245.082 10.7416C245.227 10.5797 245.993 9.7085 246.211 9.46503C248.613 6.78295 250.286 5.68395 252.813 5.70305C254.662 5.71702 256.073 7.71169 257.125 11.6016H262.502C262.75 11.6016 262.906 11.8673 262.786 12.0836C256.17 23.9931 249.472 29.5051 242.008 28.9225V34.4789C242.008 34.6581 241.863 34.8033 241.683 34.8033C241.504 34.8033 241.359 34.6581 241.359 34.4789V28.8568ZM257.941 18.5483C256.601 17.5282 255.832 16.3165 255.633 14.9132C255.448 13.6086 255.756 12.6352 256.557 11.993C255.568 8.21333 254.291 6.36315 252.808 6.35194C250.517 6.33463 248.983 7.34225 246.695 9.89788C246.479 10.1388 245.713 11.009 245.567 11.173C244.893 11.9309 244.295 12.5598 243.72 13.0948C243.714 13.1698 243.681 13.2427 243.622 13.2989C241.952 14.9018 239.997 15.854 237.636 16.3379C235.846 16.7046 234.277 16.7857 231.04 16.7853L230.857 16.7852C230.733 16.7852 230.733 16.7852 230.609 16.7852C228.819 16.7852 227.328 17.2034 226.172 17.9553C226.139 18.0059 226.092 18.0478 226.033 18.0743C226.011 18.0842 225.988 18.0914 225.965 18.0961C225.252 18.6022 224.678 19.2424 224.25 19.9948C223.267 21.7233 223.208 23.8806 224.032 25.3991C225.074 27.3205 227.738 27.8163 232.095 26.8056C232.39 26.7372 232.609 27.0738 232.428 27.316C231.2 28.9576 230.713 30.133 230.918 30.7871C231.27 31.9058 233.479 32.6685 234.807 31.8612C234.912 31.7973 235.431 31.4926 235.554 31.4192C235.93 31.1951 236.269 30.9851 236.619 30.7564C237.567 30.1375 238.452 29.4724 239.286 28.7238C242.257 26.0566 244.009 22.8492 244.009 18.9692C244.009 18.79 244.154 18.6447 244.333 18.6447C244.512 18.6447 244.658 18.79 244.658 18.9692C244.658 22.5389 243.252 25.5626 240.833 28.1237C246.898 29.1469 252.468 26.0449 257.941 18.5483ZM238.727 15.396C235.279 14.9727 230.392 10.8908 224 3.20121C224.304 9.94472 224.988 14.642 226.039 17.2739C227.267 16.5406 228.805 16.1363 230.609 16.1363C230.733 16.1363 230.733 16.1363 230.857 16.1363L231.04 16.1364C234.234 16.1367 235.773 16.0573 237.505 15.7022C237.927 15.6159 238.334 15.5142 238.727 15.396ZM251.687 13.93C251.21 13.93 249.957 13.5866 249.957 12.4158C249.957 11.2451 251.21 10.9017 251.687 10.9017C252.165 10.9017 253.418 11.2451 253.418 12.4158C253.418 13.5866 252.165 13.93 251.687 13.93Z" fill="black"/>
<path d="M281.783 153.442C281.69 155.063 284.538 155.588 286.716 154.203C287.761 153.539 288.358 153.373 289.387 153.306C289.63 153.29 289.71 153.284 289.833 153.271C290.223 153.228 290.542 153.144 290.88 152.975C292.626 152.107 292.022 150.016 289.528 149.699C287.893 149.491 286.088 149.933 284.114 151.015C283.96 151.099 283.806 151.182 283.652 151.265C282.471 151.893 281.831 152.613 281.783 153.442ZM284.426 151.584C286.288 150.563 287.961 150.153 289.446 150.343C291.35 150.585 291.712 151.837 290.591 152.394C290.327 152.525 290.081 152.591 289.762 152.626C289.652 152.638 289.577 152.643 289.344 152.659C288.215 152.732 287.515 152.927 286.368 153.656C284.558 154.806 282.378 154.404 282.431 153.479C282.463 152.924 282.955 152.371 283.957 151.837C284.114 151.754 284.27 151.67 284.426 151.584Z" fill="black"/>
<path fill-rule="evenodd" clip-rule="evenodd" d="M42.8767 318.794C35.0183 319.187 29.9101 318.356 27.5521 316.302C24.015 313.221 25.2135 305.3 30.9124 304.089C34.7117 303.281 38.6998 308.183 42.8767 318.794ZM42.8806 318.813C46.15 311.628 49.2541 307.448 52.1929 306.275C56.6012 304.515 63.1885 309.169 61.6528 314.799C60.629 318.553 54.3716 319.891 42.8806 318.813Z" fill="white"/>
<path d="M27.4332 316.533C23.4503 313.064 25.2852 304.96 30.9392 303.758C34.8805 302.92 38.8629 307.692 42.9985 317.973C46.1841 311.138 49.2243 307.135 52.1669 305.96C57.1265 303.981 63.5842 309.284 62.0601 314.871C60.9749 318.85 54.5906 320.215 42.9446 319.123C42.9224 319.121 42.9011 319.116 42.8809 319.11C35.0038 319.494 29.8634 318.65 27.4332 316.533ZM31.0741 304.393C25.9554 305.481 24.2714 312.918 27.8595 316.044C30.09 317.987 34.9793 318.813 42.502 318.478C38.4436 308.305 34.596 303.644 31.0741 304.393ZM61.4341 314.7C62.813 309.645 56.8838 304.776 52.4075 306.563C49.6261 307.673 46.6273 311.659 43.4607 318.518C54.5055 319.504 60.4846 318.181 61.4341 314.7Z" fill="black"/>
<path fill-rule="evenodd" clip-rule="evenodd" d="M143.873 318.722C136.611 318.231 131.962 316.892 129.927 314.705C126.732 311.271 128.751 303.519 134.546 302.91C138.222 302.523 141.528 307.298 144.464 317.235C143.989 309.988 144.704 305.197 146.611 302.863C149.613 299.187 157.631 300.063 159.017 305.732C159.931 309.471 155.22 313.625 144.882 318.195L153.574 327.796L151.328 329.488L144.717 321.676L140.35 329.269L137.269 328.348L143.873 318.722Z" fill="white"/>
<path d="M129.803 314.988C126.205 311.121 128.877 303.254 134.625 302.649C138.202 302.273 141.341 306.345 144.133 314.786C143.966 308.863 144.736 304.846 146.473 302.72C149.851 298.584 158.07 300.091 159.446 305.717C160.402 309.629 155.731 313.81 145.537 318.372L153.928 327.641C154.056 327.782 154.035 328.003 153.883 328.117L151.637 329.81C151.499 329.913 151.305 329.892 151.194 329.76L144.882 322.301L140.745 329.493C140.67 329.624 140.515 329.686 140.37 329.643L137.29 328.721C137.079 328.658 136.991 328.408 137.115 328.227L143.398 319.068C136.383 318.541 131.857 317.195 129.803 314.988ZM153.208 327.813L144.755 318.475C144.607 318.311 144.662 318.05 144.864 317.961C155.061 313.453 159.674 309.385 158.815 305.872C157.57 300.782 150.024 299.398 146.975 303.131C145.137 305.382 144.431 310.105 144.901 317.277C144.926 317.663 144.376 317.761 144.266 317.39C141.373 307.597 138.143 302.932 134.693 303.295C129.489 303.842 127.036 311.063 130.278 314.546C132.24 316.655 136.823 317.975 144.008 318.461C144.259 318.478 144.396 318.761 144.254 318.968L137.902 328.227L140.31 328.947L144.549 321.577C144.662 321.382 144.933 321.357 145.078 321.529L151.491 329.107L153.208 327.813Z" fill="black"/>
<path d="M291.623 156.986L296.814 154.606C296.977 154.532 297.049 154.339 296.974 154.176C296.899 154.013 296.707 153.942 296.544 154.016L291.352 156.396C291.19 156.47 291.118 156.663 291.193 156.826C291.267 156.989 291.46 157.06 291.623 156.986Z" fill="black"/>
</svg>
