<svg width="16" height="16" viewBox="0 0 16 16" fill="none" xmlns="http://www.w3.org/2000/svg">
<path d="M0.327587 15.6017C0.421187 15.6953 0.544067 15.7419 0.666947 15.7419C0.789827 15.7419 0.912707 15.6949 1.00679 15.6013L7.86695 8.73294L14.7271 15.6013C14.8207 15.6953 14.9436 15.7419 15.0669 15.7419C15.1898 15.7419 15.3127 15.6949 15.4063 15.6017C15.594 15.4145 15.594 15.1107 15.4068 14.923L8.55335 8.0619L15.4063 1.20126C15.5935 1.01358 15.5935 0.709736 15.4058 0.522536C15.2177 0.334856 14.9143 0.334856 14.7271 0.523016L7.86647 7.39134L1.00631 0.523016C0.818628 0.335336 0.514787 0.335336 0.327587 0.522536C0.139907 0.709736 0.139908 1.01358 0.327108 1.20126L7.17959 8.0619L0.327108 14.923C0.139908 15.1102 0.139907 15.4145 0.327587 15.6017Z" fill="#00FFD1"/>
</svg>
