<svg width="112" height="112" viewBox="0 0 112 112" fill="none" xmlns="http://www.w3.org/2000/svg">
<g clip-path="url(#clip0)" filter="url(#filter0_d)">
<path d="M21.3944 54.948L56.0002 77.6617L90.606 54.948V17.3329C90.606 16.3778 89.8292 15.5995 88.8757 15.5995H23.1246C22.1712 15.5995 21.3944 16.3778 21.3944 17.3329V54.948ZM56.0002 81.4664C55.6696 81.4664 55.3393 81.3727 55.0519 81.1839L18.716 57.3348C18.2281 57.0142 17.9338 56.4699 17.9338 55.8858V17.3329C17.9338 14.466 20.2629 12.1328 23.1246 12.1328H88.8755C91.7375 12.1328 94.0663 14.466 94.0663 17.3329V55.8858C94.0663 56.4699 93.7721 57.0142 93.2841 57.3348L56.9485 81.1837C56.6611 81.3727 56.3307 81.4664 56.0002 81.4664Z" fill="#00FFD1"/>
<path d="M94.0665 38.25V52.6764L103.348 46.5854L94.0665 38.25ZM92.3362 57.6182C92.0542 57.6182 91.7705 57.5489 91.5126 57.4102C90.9555 57.1069 90.606 56.521 90.606 55.8848V34.3673C90.606 33.6843 91.0075 33.0639 91.6304 32.7847C92.2533 32.5074 92.9835 32.6201 93.4904 33.0777L107.333 45.5092C107.734 45.8697 107.945 46.3931 107.904 46.9306C107.864 47.4679 107.577 47.955 107.127 48.2497L93.2845 57.3341C92.9971 57.5229 92.6666 57.6182 92.3362 57.6182Z" fill="#00FFD1"/>
<path d="M47.0125 12.1333H64.9885L55.9996 4.06116L47.0125 12.1333ZM69.5097 15.6001H42.4913C41.7732 15.6001 41.1313 15.1581 40.8751 14.4855C40.619 13.8147 40.8025 13.0554 41.3354 12.5753L54.8456 0.441955C55.5031 -0.147318 56.4981 -0.147318 57.1554 0.441955L70.6637 12.5753C71.1983 13.0554 71.3818 13.8147 71.1257 14.4855C70.8697 15.1579 70.2278 15.6001 69.5097 15.6001Z" fill="#00FFD1"/>
<path d="M8.65208 46.5856L17.9333 52.6766V38.2501L8.65208 46.5856ZM19.6636 57.6182C19.3331 57.6182 19.0027 57.5229 18.7153 57.3339L4.87318 48.2494C4.42504 47.9548 4.13783 47.4677 4.09635 46.9304C4.05653 46.3931 4.26596 45.8678 4.66726 45.509L18.5096 33.0775C19.0184 32.6199 19.7468 32.5055 20.3697 32.7845C20.9926 33.0637 21.3941 33.6841 21.3941 34.367V55.8846C21.3941 56.5207 21.0462 57.1067 20.4875 57.41C20.2294 57.5489 19.9457 57.6182 19.6636 57.6182Z" fill="#00FFD1"/>
<path d="M68.1122 25.9999H43.888C42.9329 25.9999 42.1577 25.2233 42.1577 24.2666C42.1577 23.3098 42.9329 22.5332 43.888 22.5332H68.112C69.067 22.5332 69.8422 23.3098 69.8422 24.2666C69.8424 25.2233 69.0673 25.9999 68.1122 25.9999Z" fill="#00FFD1"/>
<path d="M81.9543 36.3994H30.0458C29.0907 36.3994 28.3156 35.6227 28.3156 34.666C28.3156 33.7092 29.0907 32.9326 30.0458 32.9326H81.9543C82.9094 32.9326 83.6846 33.7092 83.6846 34.666C83.6846 35.6227 82.9094 36.3994 81.9543 36.3994Z" fill="#00FFD1"/>
<path d="M81.9543 46.7997H30.0458C29.0907 46.7997 28.3156 46.0231 28.3156 45.0664C28.3156 44.1096 29.0907 43.333 30.0458 43.333H81.9543C82.9094 43.333 83.6846 44.1096 83.6846 45.0664C83.6846 46.0233 82.9094 46.7997 81.9543 46.7997Z" fill="#00FFD1"/>
<path d="M81.9543 57.2001H30.0458C29.0907 57.2001 28.3156 56.4235 28.3156 55.4668C28.3156 54.51 29.0907 53.7334 30.0458 53.7334H81.9543C82.9094 53.7334 83.6846 54.51 83.6846 55.4668C83.6846 56.4235 82.9094 57.2001 81.9543 57.2001Z" fill="#00FFD1"/>
<path d="M11.6201 100.533H100.38L63.9233 76.6047L56.9486 81.1825C56.3741 81.5603 55.6266 81.5603 55.0522 81.1825L48.0775 76.6047L11.6201 100.533ZM106.178 104H5.82207C5.05721 104 4.38252 103.495 4.16443 102.762C3.94469 102.027 4.23355 101.237 4.87378 100.818L47.129 73.0841C47.7034 72.7063 48.4509 72.7063 49.0254 73.0841L56.0001 77.6619L62.9748 73.0841C63.5492 72.7063 64.2951 72.7063 64.8695 73.0841L107.127 100.818C107.767 101.237 108.054 102.027 107.836 102.762C107.618 103.496 106.943 104 106.178 104Z" fill="#00FFD1"/>
<path d="M7.55221 76.2666C7.55221 77.2233 6.77704 77.9999 5.82194 77.9999C4.86685 77.9999 4.09167 77.2233 4.09167 76.2666C4.09167 75.3098 4.86685 74.5332 5.82194 74.5332C6.77704 74.5332 7.55221 75.3096 7.55221 76.2666Z" fill="#00FFD1"/>
<path d="M106.178 104H5.82194C4.86685 104 4.09167 103.224 4.09167 102.267V83.2003C4.09167 82.2435 4.86685 81.4669 5.82194 81.4669C6.77704 81.4669 7.55221 82.2435 7.55221 83.2003V100.534H104.448V50.0087L56.9485 81.1828C56.374 81.5606 55.6265 81.5606 55.0521 81.1828L7.55221 50.0087V69.3336C7.55221 70.2903 6.77704 71.0669 5.82194 71.0669C4.86685 71.0669 4.09167 70.2903 4.09167 69.3336V46.8002C4.09167 46.1641 4.4412 45.5782 4.99828 45.2749C5.56053 44.9751 6.23893 45.0027 6.77002 45.3512L56.0002 77.6622L105.23 45.3512C105.762 45.0027 106.441 44.9751 107.002 45.2749C107.559 45.5782 107.909 46.1641 107.909 46.8002V102.267C107.909 103.224 107.133 104 106.178 104Z" fill="#00FFD1"/>
</g>
<defs>
<filter id="filter0_d" x="0" y="0" width="112" height="112" filterUnits="userSpaceOnUse" color-interpolation-filters="sRGB">
<feFlood flood-opacity="0" result="BackgroundImageFix"/>
<feColorMatrix in="SourceAlpha" type="matrix" values="0 0 0 0 0 0 0 0 0 0 0 0 0 0 0 0 0 0 127 0"/>
<feOffset dy="4"/>
<feGaussianBlur stdDeviation="2"/>
<feColorMatrix type="matrix" values="0 0 0 0 0 0 0 0 0 0 0 0 0 0 0 0 0 0 0.25 0"/>
<feBlend mode="normal" in2="BackgroundImageFix" result="effect1_dropShadow"/>
<feBlend mode="normal" in="SourceGraphic" in2="effect1_dropShadow" result="shape"/>
</filter>
<clipPath id="clip0">
<rect width="104" height="104" fill="white" transform="translate(4)"/>
</clipPath>
</defs>
</svg>
